<svg xmlns="http://www.w3.org/2000/svg" width="372.735" height="372.741" viewBox="0 0 372.735 372.741">
  <g id="dashboard" transform="translate(822 561)">
    <path id="dashboard-2" data-name="dashboard" d="M301.39,127.23V266.11a33.6,33.6,0,0,1-33.6,33.6H197.23a33.6,33.6,0,0,1-33.6-33.6V127.23a33.6,33.6,0,0,1,33.6-33.6h70.562a33.6,33.6,0,0,1,33.6,33.6Zm-33.6,198.02H197.229a33.6,33.6,0,0,0-33.6,33.6v73.922a33.6,33.6,0,0,0,33.6,33.6h70.562a33.6,33.6,0,0,0,33.6-33.6V358.852a33.6,33.6,0,0,0-33.6-33.6Zm234.98-82.656-142.24,0a33.6,33.6,0,0,0-33.6,33.6v156.58a33.6,33.6,0,0,0,33.6,33.6h142.24a33.6,33.6,0,0,0,33.6-33.6V276.2a33.6,33.6,0,0,0-33.6-33.6Zm0-148.96-142.24,0a33.6,33.6,0,0,0-33.6,33.6v56.227a33.6,33.6,0,0,0,33.6,33.6h142.24a33.6,33.6,0,0,0,33.6-33.6V127.236a33.6,33.6,0,0,0-33.6-33.6Z" transform="translate(-985.631 -654.632)" fill="#1E3A8A"/>
  </g>
</svg>
