<svg xmlns="http://www.w3.org/2000/svg" width="428.216" height="527.063" viewBox="0 0 428.216 527.063">
  <g id="delete" transform="translate(-135.908 -16.466)">
    <path id="Path_1" data-name="Path 1" d="M564.12,148.23a49.414,49.414,0,0,0-49.411-49.411H432.354a82.352,82.352,0,1,0-164.7,0H185.295a49.3,49.3,0,0,0-16.468,95.792v270.91a78.087,78.087,0,0,0,77.988,78.008h206.38a78.087,78.087,0,0,0,77.988-78.008V194.611a49.415,49.415,0,0,0,32.941-46.383ZM350,49.406A49.414,49.414,0,0,1,399.411,98.82h-98.82A49.414,49.414,0,0,1,350,49.406Zm148.23,416.11a45.112,45.112,0,0,1-45.047,45.067H246.8a45.112,45.112,0,0,1-45.047-45.067V197.636h296.47ZM514.7,164.7H185.293a16.471,16.471,0,0,1,0-32.942H514.7a16.471,16.471,0,0,1,0,32.942Z" fill="#fff"/>
    <path id="Path_2" data-name="Path 2" d="M350,461.18a16.471,16.471,0,0,0,16.469-16.469V263.531a16.469,16.469,0,1,0-32.938,0v181.18A16.471,16.471,0,0,0,350,461.18Z" fill="#fff"/>
    <path id="Path_3" data-name="Path 3" d="M415.88,444.71a16.471,16.471,0,0,0,16.469-16.472V280.008a16.471,16.471,0,1,0-32.942,0v148.23A16.471,16.471,0,0,0,415.88,444.71Z" fill="#fff"/>
    <path id="Path_4" data-name="Path 4" d="M284.12,444.71a16.471,16.471,0,0,0,16.472-16.472V280.008a16.471,16.471,0,1,0-32.942,0v148.23A16.471,16.471,0,0,0,284.12,444.71Z" fill="#fff"/>
  </g>
</svg>
