<svg xmlns="http://www.w3.org/2000/svg" width="228.111" height="72.783" viewBox="0 0 228.111 72.783">
  <g id="iconnect-logo" transform="translate(-0.002 0.001)">
    <path id="Path_8" data-name="Path 8" d="M1369,509.81V496c0-1.09-.2-2.51,1.51-2.22s4.7-1.37,5.1,1.31c.6,4.1,2.9,4.24,6,4,1.09-.09,2.88-.72,3.23.6a11.57,11.57,0,0,1,0,5.61c-.35,1.37-2.1.62-3.2.65-4,.09-4,0-4,3.95,0,3.69-.06,7.39,0,11.08s1.07,4.79,4.7,4.56c3.83-.23,2.42,2.37,2.7,4.16.35,2.26-.56,3.09-2.81,2.81a33.611,33.611,0,0,0-3.89,0c-6.64,0-9.22-2.5-9.39-9.21C1368.89,518.8,1369,514.31,1369,509.81Z" transform="translate(-1157.072 -486.79)" fill="#0a0a0a"/>
    <path id="Path_7" data-name="Path 7" d="M1359.08,532.5h-1.8c-11.34-.45-17.52-7.68-16.29-19,1-8.82,5.33-13.17,14.18-14.15a35.472,35.472,0,0,1,10.44.41c.81.15,1.93.16,1.85,1.49-.11,1.77.39,3.6-.34,5.3-.09.2-1.12.06-1.69,0a30.772,30.772,0,0,0-8.07-.37c-4.84.44-7.54,3.38-7.72,8.26-.25,6.51,2.12,10.24,7.13,11.08a24.218,24.218,0,0,0,8.94-.35c1.42-.3,1.83.11,1.77,1.43a19.912,19.912,0,0,0,0,3c.18,1.66-.56,2.37-2.16,2.49-2.09.16-4.17.43-6.25.66Z" transform="translate(-1156.666 -486.79)" fill="#0a0a0a"/>
    <path id="Path_2" data-name="Path 2" d="M1328.82,518.86c-3,0-6,.08-9,0-2-.08-2.15.77-1.51,2.33,1.11,2.73,3.38,3.82,6.06,4.22a35.731,35.731,0,0,0,11.63-.3c2-.37,2.36.21,2.36,2,0,4.69.11,4.78-4.54,5.14s-9.56.66-14.25-.81c-5.1-1.6-8.37-4.88-9.55-10.11a26.769,26.769,0,0,1-.66-5c-.36-13.56,8.92-20.46,21.9-16.33,6.21,2,9.39,7.47,9.16,15.44-.07,2.52-.63,3.82-3.55,3.5a72.375,72.375,0,0,0-8.05-.08Zm-4-6c1.69,0,3.4-.13,5.08,0,2.2.21,2.25-.93,1.85-2.51-.7-2.74-2.72-4.22-6-4.4-3.73-.2-6,1.12-7.16,4.13-.73,1.83-.87,3.05,1.76,2.78a42.009,42.009,0,0,1,4.42-.04Z" transform="translate(-1156.262 -486.79)" fill="#0a0a0a"/>
    <g id="Group_2" data-name="Group 2" transform="translate(-0.487)">
      <path id="Path_3" data-name="Path 3" d="M1284.6,503.61c3.81-3.25,7.73-4.9,12.4-4.43,6.34.63,9.77,3.94,10.18,10.41.26,4.08.11,8.19.13,12.29,0,2.59-.12,5.2,0,7.79.13,2.1-.31,3-2.72,2.91-5.9-.14-5.91,0-5.91-6V511.89c0-4.36-2.13-6.18-6.43-5.78-4.84.46-6.81,2.58-6.81,7.34,0,5.5-.07,11,0,16.49,0,1.86-.36,2.62-2.45,2.62-6.29,0-6.29.11-6.29-6.24V502.05c0-1.19-.79-3.29,1.65-2.92,2,.29,5.14-1.79,5.54,2.35a15.011,15.011,0,0,0,.71,2.13Z" transform="translate(-1155.76 -486.79)" fill="#0a0a0a"/>
      <path id="Path_5" data-name="Path 5" d="M1242.65,515.72V501.64c0-1.07-.5-2.85,1.47-2.5s4.79-1.68,5.44,1.71c.53,2.76,1.34,2.43,3.14,1,3.64-2.79,7.84-3.34,12.24-2.41,4.85,1,7.79,4.45,8,9.89.23,7.08,0,14.18.11,21.27,0,1.45-.53,1.82-1.92,1.9-6.53.37-6.53.41-6.53-5.95V512.16c0-4.8-2.56-6.89-7.36-6-4.63.89-6,2.53-6,7.16,0,5.5-.06,11,0,16.49,0,1.81-.28,2.66-2.41,2.67-6.17,0-6.17.13-6.17-6.06Z" transform="translate(-1155.76 -486.79)" fill="#0a0a0a"/>
      <path id="Path_6" data-name="Path 6" d="M1275.12,559.57a32.84,32.84,0,0,1-31-22.18c-.75-2.25-.41-2.84,2.06-3,3.54-.21,5.53.61,7.32,4.15,4.42,8.76,12.17,13.16,21.92,13s17.24-5,21.92-13.74c.58-1.11.57-2.94,2-3.16a22.471,22.471,0,0,1,6.55-.07c1.56.22.64,1.61.36,2.43a32.27,32.27,0,0,1-18.23,19.9,31.21,31.21,0,0,1-12.9,2.67Z" transform="translate(-1155.76 -486.79)" fill="#fe990a"/>
    </g>
    <path id="Path_4" data-name="Path 4" d="M1240.37,517c-.12,5-1.23,10.81-7.27,13.62a20.6,20.6,0,0,1-20.08-.86,11.11,11.11,0,0,1-4.77-6.67,24.432,24.432,0,0,1-.82-11c1.29-8.34,6.09-12.68,14.53-13h1.5C1234.91,499,1240.42,504.52,1240.37,517Zm-8.6-1.31a23.261,23.261,0,0,0-.19-3c-.65-4.56-3.44-7.09-7.77-7.1s-7.15,2.48-7.8,7.06a17.239,17.239,0,0,0,.62,8.55c1.19,3.22,3.52,4.78,7.13,4.8s6-1.56,7.19-4.75a14.69,14.69,0,0,0,.82-5.58Z" transform="translate(-1156.024 -486.79)" fill="#0a0a0a"/>
    <path id="Path_1" data-name="Path 1" d="M1192.77,532.93c-2.51-.23-5-.27-7.47-.73-10.72-2-16.5-9.08-17.06-20.74a34.587,34.587,0,0,1,.37-7.46c1.55-9.17,6.77-14.71,15.84-16.44a44.91,44.91,0,0,1,17.29.14c4.54.91,4.53,1,4.53,5.58,0,3.4,0,3.4-3.25,2.39a30.3,30.3,0,0,0-15.38-.83c-5.76,1.21-9,4.68-10.15,10.42a22.848,22.848,0,0,0,.31,9.81c1.48,6.2,6.27,9.78,13.46,10.27a32.311,32.311,0,0,0,13.26-1.88c1.33-.47,1.81-.32,1.75,1.15-.25,6.9,1.47,5.87-5.77,7.52a61.918,61.918,0,0,1-7.73.8Z" transform="translate(-1156.164 -486.79)" fill="#0a0a0a"/>
    <g id="Group_1" data-name="Group 1">
      <path id="Path_9" data-name="Path 9" d="M1156.18,515.79V501.11c0-1.56.48-2,2-2.08,6.51-.25,6.51-.31,6.51,6.27,0,8.19-.07,16.38,0,24.57,0,2.07-.53,2.72-2.66,2.7-5.91-.07-5.91,0-5.91-6Z" transform="translate(-1155.76 -486.79)" fill="#0a0a0a"/>
      <path id="Path_10" data-name="Path 10" d="M1160.28,493.94c-3.88,0-5.32-2.1-4.09-5.9a1.18,1.18,0,0,1,1.28-.94h6c.91,0,1.25.44,1.26,1.26v.9C1164.89,493.94,1164.89,493.94,1160.28,493.94Z" transform="translate(-1155.76 -486.79)" fill="#0a0a0a"/>
    </g>
  </g>
</svg>
