<svg xmlns="http://www.w3.org/2000/svg" width="341.1" height="341.1" viewBox="0 0 341.1 341.1">
  <g id="Group_1" data-name="Group 1" transform="translate(-272.387 -228)">
    <path id="Path_3" data-name="Path 3" d="M341.24,202.03h17.383v67.3H341.24Z" transform="translate(92.937 118.55)" fill="#2bb71b"/>
    <path id="Path_4" data-name="Path 4" d="M341.31,290.6h17.383v67.3H341.31Z" transform="translate(92.937 118.55)" fill="#2bb71b"/>
    <path id="Path_5" data-name="Path 5" d="M292.91,235.22v.922a33.416,33.416,0,0,0,27.2,32.727V202.623a33.11,33.11,0,0,0-27.2,32.6Z" transform="translate(92.937 118.55)" fill="#2bb71b"/>
    <path id="Path_6" data-name="Path 6" d="M379.9,291.13v66.18a33.176,33.176,0,0,0,27.2-32.664v-.922a33.216,33.216,0,0,0-27.2-32.594Z" transform="translate(92.937 118.55)" fill="#2bb71b"/>
    <path id="Path_7" data-name="Path 7" d="M350,109.45c-94.1,0-170.55,76.52-170.55,170.55S255.97,450.55,350,450.55,520.55,374.03,520.55,280,444.1,109.45,350,109.45Zm78.363,215.27A54.422,54.422,0,0,1,379.9,378.782v15.145a10.6,10.6,0,0,1-21.2,0V379.111H341.307v14.816a10.6,10.6,0,0,1-21.2,0V379.111H293.892a10.6,10.6,0,0,1,0-21.2h26.273V290.278A54.483,54.483,0,0,1,271.7,236.216v-.922a54.422,54.422,0,0,1,48.465-54.062V166.087a10.6,10.6,0,1,1,21.2,0V180.9h17.383V166.087a10.6,10.6,0,1,1,21.2,0V180.9h26.273a10.6,10.6,0,0,1,0,21.2H379.956v67.7a54.483,54.483,0,0,1,48.465,54.062l.008.855Z" transform="translate(92.937 118.55)" fill="#2bb71b"/>
  </g>
</svg>
