<svg xmlns="http://www.w3.org/2000/svg" width="630.583" height="561.55" viewBox="0 0 630.583 561.55">
  <g id="router" transform="translate(-34.707 -0.005)">
    <path id="Path_73" data-name="Path 73" d="M665.29,466.73V371.093a49.364,49.364,0,0,0-49.223-49.3H84.007a49.379,49.379,0,0,0-49.3,49.3V466.73a49.316,49.316,0,0,0,49.3,49.223h532.06A49.3,49.3,0,0,0,665.29,466.73ZM536.69,540.2h64.078V560H536.69ZM97.01,97.565a12.017,12.017,0,0,1,11.973,11.973v90.316H84.963V109.538A12.033,12.033,0,0,1,97.01,97.565Zm100.59,73.98-10.645-6.059A113.424,113.424,0,0,0,144.826,10.65L150.959,0A125.74,125.74,0,0,1,197.6,171.544ZM112.608,540.2h64.078V560H112.608Zm59.051-383.51-10.645-6.059A83.519,83.519,0,0,0,129.971,36.587L136.1,25.942a95.793,95.793,0,0,1,35.55,130.747Zm-25.941-14.86-10.645-6.059A53.806,53.806,0,0,0,115.19,62.528l6.059-10.645a65.835,65.835,0,0,1,24.465,89.945Zm-63.043,76.2h28.6a10.7,10.7,0,0,1,10.645,10.645v74.941H84.008a49.2,49.2,0,0,0-11.984,1.48l.011-76.426A10.7,10.7,0,0,1,82.68,218.025ZM79.644,378.12h48.633v48.707H79.644Zm83.441,0h48.707v48.707H163.085Zm83.441,0h48.707v48.707H246.526Zm325.2,0h48.633v48.707H571.726Z" fill="#1E3A8A" fill-rule="evenodd"/>
    <g id="Group_42" data-name="Group 42" transform="translate(34.711 561.109)">
      <path id="Path_74" data-name="Path 74" d="M.25-.016A.062.062,0,0,1,.2,0H.156A.172.172,0,0,1,.047-.031.114.114,0,0,1,.016-.125.147.147,0,0,1,.047-.234.148.148,0,0,1,.156-.281.084.084,0,0,1,.2-.266.084.084,0,0,1,.25-.25V-.2A.084.084,0,0,0,.2-.219H.172A.063.063,0,0,0,.11-.188a.086.086,0,0,0-.016.063A.115.115,0,0,0,.11-.063c.008.012.031.016.063.016H.2A.162.162,0,0,1,.25-.063Z" fill="#1E3A8A"/>
    </g>
    <g id="Group_43" data-name="Group 43" transform="translate(34.98 561.109)">
      <path id="Path_75" data-name="Path 75" d="M.172-.141A.017.017,0,0,0,.156-.156.066.066,0,0,0,.109-.14a.062.062,0,0,0-.016.047V0H.031V-.2H.094v.031A.048.048,0,0,1,.125-.187.048.048,0,0,1,.156-.2H.172Z" fill="#1E3A8A"/>
    </g>
    <g id="Group_44" data-name="Group 44" transform="translate(35.164 561.109)">
      <path id="Path_76" data-name="Path 76" d="M.234-.109v.031H.078a.077.077,0,0,1,.016.031H.172A.062.062,0,0,0,.219-.063v.047A.062.062,0,0,1,.172,0H.125A.155.155,0,0,1,.047-.016.1.1,0,0,1,.016-.094c0-.039.008-.066.031-.078A.109.109,0,0,1,.125-.2.116.116,0,0,1,.2-.172a.067.067,0,0,1,.031.063ZM.172-.125A.017.017,0,0,0,.156-.141.077.077,0,0,0,.125-.156.048.048,0,0,0,.094-.14L.078-.125Z" fill="#1E3A8A"/>
    </g>
    <g id="Group_45" data-name="Group 45" transform="translate(35.414 561.109)">
      <path id="Path_77" data-name="Path 77" d="M.125-.094a.048.048,0,0,0-.031.016.014.014,0,0,0-.012,0,.014.014,0,0,0,0,.012v.016H.141A.048.048,0,0,0,.156-.078V-.094ZM.219-.109V0H.156V-.031L.125,0H.094A.115.115,0,0,1,.031-.016C.02-.023.016-.039.016-.062A.062.062,0,0,1,.031-.109.212.212,0,0,1,.109-.125H.156c0-.02-.008-.031-.016-.031H.031V-.2H.109a.087.087,0,0,1,.078.031.067.067,0,0,1,.031.063Z" fill="#1E3A8A"/>
    </g>
    <g id="Group_46" data-name="Group 46" transform="translate(35.664 561.109)">
      <path id="Path_78" data-name="Path 78" d="M.109-.266V-.2H.172v.047H.109v.109H.156V0H.109C.078,0,.055,0,.047-.016A.082.082,0,0,1,.031-.062V-.156H0V-.2H.031V-.266Z" fill="#1E3A8A"/>
    </g>
    <g id="Group_47" data-name="Group 47" transform="translate(35.84 561.109)">
      <path id="Path_79" data-name="Path 79" d="M.234-.109v.031H.078a.077.077,0,0,1,.016.031H.172A.062.062,0,0,0,.219-.063v.047A.062.062,0,0,1,.172,0H.125A.155.155,0,0,1,.047-.016.1.1,0,0,1,.016-.094c0-.039.008-.066.031-.078A.109.109,0,0,1,.125-.2.116.116,0,0,1,.2-.172a.067.067,0,0,1,.031.063ZM.172-.125A.017.017,0,0,0,.156-.141.077.077,0,0,0,.125-.156.048.048,0,0,0,.094-.14L.078-.125Z" fill="#1E3A8A"/>
    </g>
    <g id="Group_48" data-name="Group 48" transform="translate(36.09 561.109)">
      <path id="Path_80" data-name="Path 80" d="M.172-.172V-.281H.234V0H.172V-.031L.141,0H.109A.155.155,0,0,1,.031-.016.155.155,0,0,1,.016-.094.122.122,0,0,1,.031-.172.109.109,0,0,1,.109-.2.077.077,0,0,1,.14-.184a.077.077,0,0,1,.031.016ZM.125-.047H.156A.066.066,0,0,0,.172-.094.084.084,0,0,0,.156-.141.077.077,0,0,0,.125-.156.048.048,0,0,0,.094-.14a.062.062,0,0,0-.016.047c0,.023,0,.039.016.047Z" fill="#1E3A8A"/>
    </g>
    <g id="Group_49" data-name="Group 49" transform="translate(36.484 561.109)">
      <path id="Path_81" data-name="Path 81" d="M.141-.047H.156A.066.066,0,0,0,.172-.094.084.084,0,0,0,.156-.141.017.017,0,0,0,.141-.156.066.066,0,0,0,.094-.14v.078C.1-.051.117-.047.141-.047ZM.094-.172A.048.048,0,0,1,.125-.187.048.048,0,0,1,.156-.2a.067.067,0,0,1,.063.031A.087.087,0,0,1,.25-.094a.109.109,0,0,1-.031.078A.086.086,0,0,1,.156,0H.125A.119.119,0,0,1,.094-.031V0H.031V-.281H.094Z" fill="#1E3A8A"/>
    </g>
    <g id="Group_50" data-name="Group 50" transform="translate(36.746 561.109)">
      <path id="Path_82" data-name="Path 82" d="M0-.2H.063l.063.141L.172-.2H.234L.156.016C.145.035.133.051.125.063A.084.084,0,0,1,.078.078H.031V.031H.078A.017.017,0,0,0,.094.016V0Z" fill="#1E3A8A"/>
    </g>
    <g id="Group_51" data-name="Group 51" transform="translate(37.117 561.109)">
      <path id="Path_83" data-name="Path 83" d="M.094-.031V.078H.031V-.2H.094v.031A.048.048,0,0,1,.125-.187.048.048,0,0,1,.156-.2a.067.067,0,0,1,.063.031A.087.087,0,0,1,.25-.094a.109.109,0,0,1-.031.078A.086.086,0,0,1,.156,0H.125A.119.119,0,0,1,.094-.031ZM.141-.156A.066.066,0,0,0,.094-.14v.078C.1-.05.117-.046.141-.046H.156A.066.066,0,0,0,.172-.094.084.084,0,0,0,.156-.141.017.017,0,0,0,.141-.156Z" fill="#1E3A8A"/>
    </g>
    <g id="Group_52" data-name="Group 52" transform="translate(37.383 561.109)">
      <path id="Path_84" data-name="Path 84" d="M.125-.156A.048.048,0,0,0,.094-.14a.062.062,0,0,0-.016.047c0,.023,0,.039.016.047H.156A.066.066,0,0,0,.172-.094.084.084,0,0,0,.156-.141C.156-.148.145-.156.125-.156Zm0-.047A.116.116,0,0,1,.2-.172a.087.087,0,0,1,.031.078A.109.109,0,0,1,.2-.016.165.165,0,0,1,.125,0,.155.155,0,0,1,.047-.016.1.1,0,0,1,.016-.094c0-.039.008-.066.031-.078A.109.109,0,0,1,.125-.2Z" fill="#1E3A8A"/>
    </g>
    <g id="Group_53" data-name="Group 53" transform="translate(37.637 561.109)">
      <path id="Path_85" data-name="Path 85" d="M.094-.031V.078H.031V-.2H.094v.031A.048.048,0,0,1,.125-.187.048.048,0,0,1,.156-.2a.067.067,0,0,1,.063.031A.087.087,0,0,1,.25-.094a.109.109,0,0,1-.031.078A.086.086,0,0,1,.156,0H.125A.119.119,0,0,1,.094-.031ZM.141-.156A.066.066,0,0,0,.094-.14v.078C.1-.05.117-.046.141-.046H.156A.066.066,0,0,0,.172-.094.084.084,0,0,0,.156-.141.017.017,0,0,0,.141-.156Z" fill="#1E3A8A"/>
    </g>
    <g id="Group_54" data-name="Group 54" transform="translate(37.898 561.109)">
      <path id="Path_86" data-name="Path 86" d="M.2-.2v.063A.307.307,0,0,0,.156-.156H.141A.066.066,0,0,0,.094-.14a.062.062,0,0,0-.016.047.036.036,0,0,0,.016.031C.1-.05.117-.046.141-.046H.172A.047.047,0,0,0,.2-.062V0H.125A.155.155,0,0,1,.047-.016.1.1,0,0,1,.016-.094c0-.039.008-.066.031-.078A.109.109,0,0,1,.125-.2Z" fill="#1E3A8A"/>
    </g>
    <g id="Group_55" data-name="Group 55" transform="translate(38.117 561.109)">
      <path id="Path_87" data-name="Path 87" d="M.125-.156A.048.048,0,0,0,.094-.14a.062.062,0,0,0-.016.047c0,.023,0,.039.016.047H.156A.066.066,0,0,0,.172-.094.084.084,0,0,0,.156-.141C.156-.148.145-.156.125-.156Zm0-.047A.116.116,0,0,1,.2-.172a.087.087,0,0,1,.031.078A.109.109,0,0,1,.2-.016.165.165,0,0,1,.125,0,.155.155,0,0,1,.047-.016.1.1,0,0,1,.016-.094c0-.039.008-.066.031-.078A.109.109,0,0,1,.125-.2Z" fill="#1E3A8A"/>
    </g>
    <g id="Group_56" data-name="Group 56" transform="translate(38.371 561.109)">
      <path id="Path_88" data-name="Path 88" d="M.172-.141A.017.017,0,0,0,.156-.156.066.066,0,0,0,.109-.14a.062.062,0,0,0-.016.047V0H.031V-.2H.094v.031A.048.048,0,0,1,.125-.187.048.048,0,0,1,.156-.2H.172Z" fill="#1E3A8A"/>
    </g>
    <g id="Group_57" data-name="Group 57" transform="translate(38.555 561.109)">
      <path id="Path_89" data-name="Path 89" d="M.234-.125V0H.172V-.125A.017.017,0,0,0,.156-.141V-.156H.141A.048.048,0,0,0,.11-.14a.062.062,0,0,0-.016.047V0H.031V-.2H.094v.031A.048.048,0,0,1,.125-.187.048.048,0,0,1,.156-.2a.067.067,0,0,1,.063.031.084.084,0,0,1,.016.047Z" fill="#1E3A8A"/>
    </g>
    <g id="Group_58" data-name="Group 58" transform="translate(38.816 561.109)">
      <path id="Path_90" data-name="Path 90" d="M.125-.094a.048.048,0,0,0-.031.016.014.014,0,0,0-.012,0,.014.014,0,0,0,0,.012v.016H.141A.048.048,0,0,0,.156-.078V-.094ZM.219-.109V0H.156V-.031L.125,0H.094A.115.115,0,0,1,.031-.016C.02-.023.016-.039.016-.062A.062.062,0,0,1,.031-.109.212.212,0,0,1,.109-.125H.156c0-.02-.008-.031-.016-.031H.031V-.2H.109a.087.087,0,0,1,.078.031.067.067,0,0,1,.031.063Z" fill="#1E3A8A"/>
    </g>
    <g id="Group_59" data-name="Group 59" transform="translate(39.066 561.109)">
      <path id="Path_91" data-name="Path 91" d="M.172-.141A.017.017,0,0,0,.156-.156.066.066,0,0,0,.109-.14a.062.062,0,0,0-.016.047V0H.031V-.2H.094v.031A.048.048,0,0,1,.125-.187.048.048,0,0,1,.156-.2H.172Z" fill="#1E3A8A"/>
    </g>
    <g id="Group_60" data-name="Group 60" transform="translate(39.25 561.109)">
      <path id="Path_92" data-name="Path 92" d="M.109-.266V-.2H.172v.047H.109v.109H.156V0H.109C.078,0,.055,0,.047-.016A.082.082,0,0,1,.031-.062V-.156H0V-.2H.031V-.266Z" fill="#1E3A8A"/>
    </g>
    <g id="Group_61" data-name="Group 61" transform="translate(39.426 561.109)">
      <path id="Path_93" data-name="Path 93" d="M.188-.2v.063A.084.084,0,0,0,.141-.156H.078v.031H.125a.11.11,0,0,1,.063.016A.084.084,0,0,1,.2-.062a.047.047,0,0,1-.031.047A.086.086,0,0,1,.109,0H.016V-.062a.093.093,0,0,0,.047.016H.125a.014.014,0,0,0,.012,0,.014.014,0,0,0,0-.012H.125A.017.017,0,0,0,.109-.078H.094A.621.621,0,0,0,.031-.094C.023-.094.016-.117.016-.141A.062.062,0,0,1,.031-.187.213.213,0,0,1,.109-.2Z" fill="#1E3A8A"/>
    </g>
    <g id="Group_62" data-name="Group 62" transform="translate(34.711 561.477)">
      <path id="Path_94" data-name="Path 94" d="M.156-.281v.047H.109V-.2H.156v.047H.109V0H.047V-.156H0V-.2H.047V-.219A.062.062,0,0,1,.063-.266.066.066,0,0,1,.109-.281Z" fill="#1E3A8A"/>
    </g>
    <g id="Group_63" data-name="Group 63" transform="translate(34.871 561.477)">
      <path id="Path_95" data-name="Path 95" d="M.172-.141A.017.017,0,0,0,.156-.156.066.066,0,0,0,.109-.14a.062.062,0,0,0-.016.047V0H.031V-.2H.094v.031A.048.048,0,0,1,.125-.187.048.048,0,0,1,.156-.2H.172Z" fill="#1E3A8A"/>
    </g>
    <g id="Group_64" data-name="Group 64" transform="translate(35.051 561.477)">
      <path id="Path_96" data-name="Path 96" d="M.125-.156A.048.048,0,0,0,.094-.14a.062.062,0,0,0-.016.047c0,.023,0,.039.016.047H.156A.066.066,0,0,0,.172-.094.084.084,0,0,0,.156-.141C.156-.148.145-.156.125-.156Zm0-.047A.116.116,0,0,1,.2-.172a.087.087,0,0,1,.031.078A.109.109,0,0,1,.2-.016.165.165,0,0,1,.125,0,.155.155,0,0,1,.047-.016.1.1,0,0,1,.016-.094c0-.039.008-.066.031-.078A.109.109,0,0,1,.125-.2Z" fill="#1E3A8A"/>
    </g>
    <g id="Group_65" data-name="Group 65" transform="translate(35.305 561.477)">
      <path id="Path_97" data-name="Path 97" d="M.219-.172A.048.048,0,0,1,.25-.188.048.048,0,0,1,.281-.2a.055.055,0,0,1,.047.031.055.055,0,0,1,.031.047V0H.281V-.141A.017.017,0,0,0,.266-.156.048.048,0,0,0,.235-.14a.062.062,0,0,0-.016.047V0H.156V-.141c0-.008-.012-.016-.031-.016a.048.048,0,0,0-.031.016V0H.031V-.2H.094v.031A.048.048,0,0,1,.125-.188.048.048,0,0,1,.156-.2a.077.077,0,0,1,.031.016.077.077,0,0,1,.031.016Z" fill="#1E3A8A"/>
    </g>
    <g id="Group_66" data-name="Group 66" transform="translate(35.82 561.477)">
      <path id="Path_98" data-name="Path 98" d="M.109-.266V-.2H.172v.047H.109v.109H.156V0H.109C.078,0,.055,0,.047-.016A.082.082,0,0,1,.031-.062V-.156H0V-.2H.031V-.266Z" fill="#1E3A8A"/>
    </g>
    <g id="Group_67" data-name="Group 67" transform="translate(35.996 561.477)">
      <path id="Path_99" data-name="Path 99" d="M.234-.125V0H.172V-.125A.017.017,0,0,0,.156-.141V-.156H.141A.048.048,0,0,0,.11-.14a.062.062,0,0,0-.016.047V0H.031V-.281H.094v.109A.048.048,0,0,1,.125-.187.048.048,0,0,1,.156-.2a.067.067,0,0,1,.063.031.084.084,0,0,1,.016.047Z" fill="#1E3A8A"/>
    </g>
    <g id="Group_68" data-name="Group 68" transform="translate(36.258 561.477)">
      <path id="Path_100" data-name="Path 100" d="M.234-.109v.031H.078a.077.077,0,0,1,.016.031H.172A.062.062,0,0,0,.219-.063v.047A.062.062,0,0,1,.172,0H.125A.155.155,0,0,1,.047-.016.1.1,0,0,1,.016-.094c0-.039.008-.066.031-.078A.109.109,0,0,1,.125-.2.116.116,0,0,1,.2-.172a.067.067,0,0,1,.031.063ZM.172-.125A.017.017,0,0,0,.156-.141.077.077,0,0,0,.125-.156.048.048,0,0,0,.094-.14L.078-.125Z" fill="#1E3A8A"/>
    </g>
    <g id="Group_69" data-name="Group 69" transform="translate(36.637 561.477)">
      <path id="Path_101" data-name="Path 101" d="M.031-.266H.109L.2-.094V-.266H.281V0H.2L.094-.187V0H.031Z" fill="#1E3A8A"/>
    </g>
    <g id="Group_70" data-name="Group 70" transform="translate(36.949 561.477)">
      <path id="Path_102" data-name="Path 102" d="M.125-.156A.048.048,0,0,0,.094-.14a.062.062,0,0,0-.016.047c0,.023,0,.039.016.047H.156A.066.066,0,0,0,.172-.094.084.084,0,0,0,.156-.141C.156-.148.145-.156.125-.156Zm0-.047A.116.116,0,0,1,.2-.172a.087.087,0,0,1,.031.078A.109.109,0,0,1,.2-.016.165.165,0,0,1,.125,0,.155.155,0,0,1,.047-.016.1.1,0,0,1,.016-.094c0-.039.008-.066.031-.078A.109.109,0,0,1,.125-.2Z" fill="#1E3A8A"/>
    </g>
    <g id="Group_71" data-name="Group 71" transform="translate(37.203 561.477)">
      <path id="Path_103" data-name="Path 103" d="M.031-.078V-.2H.094v.141A.047.047,0,0,0,.11-.043H.125A.047.047,0,0,0,.156-.062.066.066,0,0,0,.172-.109V-.2H.234V0H.172V-.031L.141,0H.094C.07,0,.055,0,.047-.016A.115.115,0,0,1,.031-.078Z" fill="#1E3A8A"/>
    </g>
    <g id="Group_72" data-name="Group 72" transform="translate(37.465 561.477)">
      <path id="Path_104" data-name="Path 104" d="M.234-.125V0H.172V-.125A.017.017,0,0,0,.156-.141V-.156H.141A.048.048,0,0,0,.11-.14a.062.062,0,0,0-.016.047V0H.031V-.2H.094v.031A.048.048,0,0,1,.125-.187.048.048,0,0,1,.156-.2a.067.067,0,0,1,.063.031.084.084,0,0,1,.016.047Z" fill="#1E3A8A"/>
    </g>
    <g id="Group_73" data-name="Group 73" transform="translate(37.855 561.477)">
      <path id="Path_105" data-name="Path 105" d="M.031-.266H.156a.067.067,0,0,1,.063.031A.067.067,0,0,1,.25-.172a.088.088,0,0,1-.031.063.086.086,0,0,1-.062.016H.109V0H.031Zm.078.047v.078H.172A.048.048,0,0,0,.188-.172C.188-.191.18-.2.172-.2A.077.077,0,0,0,.141-.219Z" fill="#1E3A8A"/>
    </g>
    <g id="Group_74" data-name="Group 74" transform="translate(38.129 561.477)">
      <path id="Path_106" data-name="Path 106" d="M.172-.141A.017.017,0,0,0,.156-.156.066.066,0,0,0,.109-.14a.062.062,0,0,0-.016.047V0H.031V-.2H.094v.031A.048.048,0,0,1,.125-.187.048.048,0,0,1,.156-.2H.172Z" fill="#1E3A8A"/>
    </g>
    <g id="Group_75" data-name="Group 75" transform="translate(38.309 561.477)">
      <path id="Path_107" data-name="Path 107" d="M.125-.156A.048.048,0,0,0,.094-.14a.062.062,0,0,0-.016.047c0,.023,0,.039.016.047H.156A.066.066,0,0,0,.172-.094.084.084,0,0,0,.156-.141C.156-.148.145-.156.125-.156Zm0-.047A.116.116,0,0,1,.2-.172a.087.087,0,0,1,.031.078A.109.109,0,0,1,.2-.016.165.165,0,0,1,.125,0,.155.155,0,0,1,.047-.016.1.1,0,0,1,.016-.094c0-.039.008-.066.031-.078A.109.109,0,0,1,.125-.2Z" fill="#1E3A8A"/>
    </g>
    <g id="Group_76" data-name="Group 76" transform="translate(38.563 561.477)">
      <path id="Path_108" data-name="Path 108" d="M.031-.2H.094V0A.084.084,0,0,1,.078.047.067.067,0,0,1,.016.078H-.016V.031H0A.017.017,0,0,0,.016.016.017.017,0,0,0,.031,0Zm0-.078H.094v.047H.031Z" fill="#1E3A8A"/>
    </g>
    <g id="Group_77" data-name="Group 77" transform="translate(38.691 561.477)">
      <path id="Path_109" data-name="Path 109" d="M.234-.109v.031H.078a.077.077,0,0,1,.016.031H.172A.062.062,0,0,0,.219-.063v.047A.062.062,0,0,1,.172,0H.125A.155.155,0,0,1,.047-.016.1.1,0,0,1,.016-.094c0-.039.008-.066.031-.078A.109.109,0,0,1,.125-.2.116.116,0,0,1,.2-.172a.067.067,0,0,1,.031.063ZM.172-.125A.017.017,0,0,0,.156-.141.077.077,0,0,0,.125-.156.048.048,0,0,0,.094-.14L.078-.125Z" fill="#1E3A8A"/>
    </g>
    <g id="Group_78" data-name="Group 78" transform="translate(38.941 561.477)">
      <path id="Path_110" data-name="Path 110" d="M.2-.2v.063A.307.307,0,0,0,.156-.156H.141A.066.066,0,0,0,.094-.14a.062.062,0,0,0-.016.047.036.036,0,0,0,.016.031C.1-.05.117-.046.141-.046H.172A.047.047,0,0,0,.2-.062V0H.125A.155.155,0,0,1,.047-.016.1.1,0,0,1,.016-.094c0-.039.008-.066.031-.078A.109.109,0,0,1,.125-.2Z" fill="#1E3A8A"/>
    </g>
    <g id="Group_79" data-name="Group 79" transform="translate(39.16 561.477)">
      <path id="Path_111" data-name="Path 111" d="M.109-.266V-.2H.172v.047H.109v.109H.156V0H.109C.078,0,.055,0,.047-.016A.082.082,0,0,1,.031-.062V-.156H0V-.2H.031V-.266Z" fill="#1E3A8A"/>
    </g>
  </g>
</svg>
