<svg xmlns="http://www.w3.org/2000/svg" width="560.003" height="559.983" viewBox="0 0 560.003 559.983">
  <g id="setting" transform="translate(-176 -250)">
    <path id="Path_1" data-name="Path 1" d="M625.21,346.23l-75.688-43.52a199.834,199.834,0,0,0,0-45.426l75.688-43.52a9.512,9.512,0,0,0,3.5-13.016L558.272,79.258a9.588,9.588,0,0,0-13.125-3.488l-75.773,43.52h0a197.394,197.394,0,0,0-39.527-22.75V9.532A9.4,9.4,0,0,0,420.437,0H279.557a9.4,9.4,0,0,0-9.406,9.527V96.54a197.319,197.319,0,0,0-39.582,22.75l-75.73-43.52a9.612,9.612,0,0,0-13.125,3.488L71.3,200.748a9.5,9.5,0,0,0,3.5,13.016l75.688,43.52a199.389,199.389,0,0,0,0,45.426l-75.7,43.52a9.512,9.512,0,0,0-3.5,13.016l70.438,121.5a9.588,9.588,0,0,0,13.125,3.488l75.773-43.52h0a197.394,197.394,0,0,0,39.527,22.75v87a9.4,9.4,0,0,0,9.406,9.527h140.88a9.4,9.4,0,0,0,9.406-9.527v-87a197.32,197.32,0,0,0,39.582-22.75l75.73,43.52a9.612,9.612,0,0,0,13.125-3.488l70.449-121.5a9.5,9.5,0,0,0-3.52-13.016ZM350,389.378c-60.562,0-109.82-49.066-109.82-109.38S289.4,170.618,350,170.618,459.82,219.684,459.82,280,410.558,389.378,350,389.378Z" transform="translate(105.994 249.995)" fill="#1E3A8A"/>
    <path id="Path_2" data-name="Path 2" d="M350,214.38a65.831,65.831,0,1,0,46.519,19.184A65.629,65.629,0,0,0,350,214.38Z" transform="translate(105.994 249.995)" fill="#1E3A8A"/>
  </g>
</svg>
