<svg xmlns="http://www.w3.org/2000/svg" width="515.2" height="380.802" viewBox="0 0 515.2 380.802">
  <path id="Path_1" data-name="Path 1" d="M350,89.6a156.612,156.612,0,0,0-110.95,45.852c-22.73,22.73-36.508,50.922-42.352,80.324-59.309,11.5-104.3,63.3-104.3,125.82,0,70.934,57.863,128.8,128.8,128.8H495.6a112.126,112.126,0,0,0,112-112c0-58.285-44.9-105.73-101.85-110.95.262-40.539-14.137-81.16-44.977-112A156.248,156.248,0,0,0,350,89.6Zm0,33.6a122,122,0,0,1,86.977,35.875A123.28,123.28,0,0,1,472.329,261.1h0A16.8,16.8,0,0,0,488.95,280H495.6a78.4,78.4,0,0,1,0,156.8H221.2a95.228,95.228,0,0,1-8.75-190.051v0a16.807,16.807,0,0,0,15.05-14.7A122.983,122.983,0,0,1,350,123.195ZM350,224a15.042,15.042,0,0,0-11.375,4.375l-61.6,56a16.956,16.956,0,0,0-1.051,23.8c5.938,6.484,17.285,6.953,23.8,1.051L333.2,278.782V386.4a16.8,16.8,0,1,0,33.6,0V278.782l33.426,30.449c6.516,5.906,17.52,5.105,23.8-1.051,6.617-6.484,5.406-17.832-1.051-23.8l-61.6-56C358.047,225.328,355.6,224,350,224Z" transform="translate(-92.398 -89.596)" fill="#fff"/>
</svg>
